<svg xmlns="http://www.w3.org/2000/svg" viewBox="0 0 181.4 150" width="181.4" height="150" role="img"><rect width="181.4" height="150" rx="8" fill="#ffffff"/><g transform="translate(16,16)"><style>.rail { fill: none; stroke: #394656; stroke-width: 1.5; }
.arrow { fill: #394656; }
.terminal { fill: #eef3fb; stroke: #3a67a8; stroke-width: 1.5; }
.nonterminal { fill: #ffffff; stroke: #394656; stroke-width: 1.5; }
.special { fill: #fff6e6; stroke: #b8860b; stroke-width: 1.5; }
.exception { fill: #fdeceb; stroke: #b0413a; stroke-width: 1.5; }
.lbl { fill: #1b2430; font-family: 'SFMono-Regular','Consolas','Liberation Mono',monospace; font-size: 13px; text-anchor: middle; dominant-baseline: central; }
.count-bg { fill: #ffffff; }
.count { fill: #6a7686; font-family: 'SFMono-Regular','Consolas',monospace; font-size: 11px; text-anchor: middle; dominant-baseline: central; }</style><path class="rail" d="M 8 13 L 8 27"/><path class="rail" d="M 8 20 L 20 20"/><path class="rail" d="M 20 20 L 48.9 20"/><rect class="nonterminal" x="48.9" y="8" width="51.6" height="24" rx="3"/><text class="lbl" x="74.7" y="20">term</text><path class="rail" d="M 100.5 20 L 129.4 20"/><path class="rail" d="M 109.4 20 L 119.4 20 Q 129.4 20 129.4 30 L 129.4 49 Q 129.4 59 119.4 59 L 30 59 Q 20 59 20 49 L 20 30 Q 20 20 30 20 L 40 20"/><path class="rail" d="M 40 59 L 60 59"/><rect class="terminal" x="60" y="47" width="29.4" height="24" rx="12"/><text class="lbl" x="74.7" y="59">+</text><path class="rail" d="M 89.4 59 L 109.4 59"/><path class="rail" d="M 40 59 L 45 59 Q 50 59 50 64 L 50 93 Q 50 98 55 98 L 60 98"/><rect class="terminal" x="60" y="86" width="29.4" height="24" rx="12"/><text class="lbl" x="74.7" y="98">-</text><path class="rail" d="M 89.4 98 L 94.4 98 Q 99.4 98 99.4 93 L 99.4 64 Q 99.4 59 104.4 59 L 109.4 59"/><polygon class="arrow" points="39,55 31,59 39,63"/><path class="rail" d="M 129.4 20 L 141.4 20"/><path class="rail" d="M 141.4 13 L 141.4 27"/></g></svg>
