<svg xmlns="http://www.w3.org/2000/svg" viewBox="0 0 290.8 111" width="290.8" height="111" role="img"><rect width="290.8" height="111" rx="8" fill="#ffffff"/><g transform="translate(16,16)"><style>.rail { fill: none; stroke: #394656; stroke-width: 1.5; }
.arrow { fill: #394656; }
.terminal { fill: #eef3fb; stroke: #3a67a8; stroke-width: 1.5; }
.nonterminal { fill: #ffffff; stroke: #394656; stroke-width: 1.5; }
.special { fill: #fff6e6; stroke: #b8860b; stroke-width: 1.5; }
.exception { fill: #fdeceb; stroke: #b0413a; stroke-width: 1.5; }
.lbl { fill: #1b2430; font-family: 'SFMono-Regular','Consolas','Liberation Mono',monospace; font-size: 13px; text-anchor: middle; dominant-baseline: central; }
.count-bg { fill: #ffffff; }
.count { fill: #6a7686; font-family: 'SFMono-Regular','Consolas',monospace; font-size: 11px; text-anchor: middle; dominant-baseline: central; }</style><path class="rail" d="M 8 13 L 8 27"/><path class="rail" d="M 8 20 L 20 20"/><path class="rail" d="M 20 20 L 40 20"/><rect class="nonterminal" x="40" y="8" width="66.4" height="24" rx="3"/><text class="lbl" x="73.2" y="20">number</text><path class="rail" d="M 106.4 20 L 218.8 20"/><path class="rail" d="M 218.8 20 L 238.8 20"/><path class="rail" d="M 20 20 L 25 20 Q 30 20 30 25 L 30 54 Q 30 59 35 59 L 40 59"/><rect class="terminal" x="40" y="47" width="29.4" height="24" rx="12"/><text class="lbl" x="54.7" y="59">(</text><path class="rail" d="M 69.4 59 L 81.4 59"/><rect class="nonterminal" x="81.4" y="47" width="96" height="24" rx="3"/><text class="lbl" x="129.4" y="59">expression</text><path class="rail" d="M 177.4 59 L 189.4 59"/><rect class="terminal" x="189.4" y="47" width="29.4" height="24" rx="12"/><text class="lbl" x="204.1" y="59">)</text><path class="rail" d="M 218.8 59 L 223.8 59 Q 228.8 59 228.8 54 L 228.8 25 Q 228.8 20 233.8 20 L 238.8 20"/><path class="rail" d="M 238.8 20 L 250.8 20"/><path class="rail" d="M 250.8 13 L 250.8 27"/></g></svg>
