<svg xmlns="http://www.w3.org/2000/svg" viewBox="0 0 292.4 126" width="292.4" height="126" role="img"><rect width="292.4" height="126" rx="8" fill="#ffffff"/><g transform="translate(16,16)"><style>.rail { fill: none; stroke: #394656; stroke-width: 1.5; }
.arrow { fill: #394656; }
.terminal { fill: #eef3fb; stroke: #3a67a8; stroke-width: 1.5; }
.nonterminal { fill: #ffffff; stroke: #394656; stroke-width: 1.5; }
.special { fill: #fff6e6; stroke: #b8860b; stroke-width: 1.5; }
.exception { fill: #fdeceb; stroke: #b0413a; stroke-width: 1.5; }
.lbl { fill: #1b2430; font-family: 'SFMono-Regular','Consolas','Liberation Mono',monospace; font-size: 13px; text-anchor: middle; dominant-baseline: central; }
.count-bg { fill: #ffffff; }
.count { fill: #6a7686; font-family: 'SFMono-Regular','Consolas',monospace; font-size: 11px; text-anchor: middle; dominant-baseline: central; }</style><path class="rail" d="M 8 28 L 8 42"/><path class="rail" d="M 8 35 L 20 35"/><path class="rail" d="M 20 35 L 40 35"/><path class="rail" d="M 40 35 L 60 35"/><rect class="terminal" x="60" y="23" width="29.4" height="24" rx="12"/><text class="lbl" x="74.7" y="35">+</text><path class="rail" d="M 89.4 35 L 109.4 35"/><path class="rail" d="M 40 35 L 45 35 Q 50 35 50 40 L 50 69 Q 50 74 55 74 L 60 74"/><rect class="terminal" x="60" y="62" width="29.4" height="24" rx="12"/><text class="lbl" x="74.7" y="74">-</text><path class="rail" d="M 89.4 74 L 94.4 74 Q 99.4 74 99.4 69 L 99.4 40 Q 99.4 35 104.4 35 L 109.4 35"/><path class="rail" d="M 109.4 35 L 129.4 35"/><path class="rail" d="M 20 35 L 25 35 Q 30 35 30 30 L 30 18 Q 30 8 40 8 L 109.4 8 Q 119.4 8 119.4 18 L 119.4 30 Q 119.4 35 124.4 35 L 129.4 35"/><path class="rail" d="M 129.4 35 L 141.4 35"/><path class="rail" d="M 141.4 35 L 161.4 35"/><rect class="nonterminal" x="161.4" y="23" width="59" height="24" rx="3"/><text class="lbl" x="190.9" y="35">digit</text><path class="rail" d="M 220.4 35 L 240.4 35"/><path class="rail" d="M 220.4 35 L 230.4 35 Q 240.4 35 240.4 45 L 240.4 52 Q 240.4 62 230.4 62 L 151.4 62 Q 141.4 62 141.4 52 L 141.4 45 Q 141.4 35 151.4 35 L 161.4 35"/><polygon class="arrow" points="194.9,58 186.9,62 194.9,66"/><path class="rail" d="M 240.4 35 L 252.4 35"/><path class="rail" d="M 252.4 28 L 252.4 42"/></g></svg>
